<?xml version="1.0" encoding="UTF-8" standalone="no"?><!DOCTYPE svg PUBLIC "-//W3C//DTD SVG 1.1//EN" "http://www.w3.org/Graphics/SVG/1.1/DTD/svg11.dtd"><svg width="100%" height="100%" viewBox="0 0 2084 2084" version="1.1" xmlns="http://www.w3.org/2000/svg" xmlns:xlink="http://www.w3.org/1999/xlink" xml:space="preserve" xmlns:serif="http://www.serif.com/" style="fill-rule:evenodd;clip-rule:evenodd;stroke-linejoin:round;stroke-miterlimit:2;"><g><g><path d="M853.804,416.764l-305.862,208.337l0,821.757l305.862,196.913l0,-740.158c-52.997,15.737 -75.465,22.626 -109.367,22.29c-1.772,-0.056 -3.545,-0.112 -5.317,-0.168l36.589,76.054l13.206,0c0,46.204 -38.247,83.671 -85.413,83.671c-47.223,0 -85.47,-37.467 -85.47,-83.671l13.264,0l51.339,-107.025c-2.23,-3.864 -3.545,-8.345 -3.545,-13.161c0,-14.953 12.406,-27.05 27.613,-27.05c15.207,0 27.556,12.097 27.556,27.05c0,5.04 -1.429,9.745 -3.945,13.833c14.75,1.344 32.816,-1.456 54.598,-13.609c24.012,-13.385 46.88,-25.258 68.891,-35.395l0,-429.668Zm-132.578,506.002c-11.891,-3.248 -21.553,-8.737 -28.414,-14.897l-45.05,93.92l111.425,0l-37.961,-79.023Z" style="fill-opacity:0.89;"/></g><g><path d="M1229.529,680.434l305.862,208.281l0,821.813l-305.862,196.913l0,-1003.828c52.997,15.737 75.465,22.626 109.367,22.29c1.772,-0.056 3.545,-0.112 5.317,-0.168l-36.532,76.054l-13.206,0c0,46.204 38.247,83.671 85.413,83.671c47.166,0 85.413,-37.467 85.413,-83.671l-13.206,0l-51.396,-107.025c2.23,-3.864 3.545,-8.345 3.545,-13.161c0,-14.953 -12.349,-27.05 -27.556,-27.05c-15.265,0 -27.556,12.097 -27.556,27.05c0,5.04 1.429,9.745 3.83,13.833c-14.693,1.344 -32.816,-1.456 -54.484,-13.609c-24.012,-13.385 -46.88,-25.258 -68.89,-35.395l0,-165.998l-0.057,0Zm160.935,227.435c-6.86,6.161 -16.465,11.649 -28.414,14.897l-37.961,79.023l111.483,0l-45.108,-93.92Z"/></g><g><clipPath id="_clip1"><rect x="882.675" y="111.657" width="321.984" height="1431.379"/></clipPath><g clip-path="url(#_clip1)"><path d="M1194.598,146.821l-305.862,237.852l0,446.694c47.051,-18.706 90.501,-29.346 133.493,-31.755l-21.153,-118.898l40.591,-30.411l40.591,30.411l-21.21,118.842c42.992,2.464 86.499,13.105 133.55,31.811l0,-684.545Zm-305.862,746.543l0,30.803l305.862,0l0,-30.803l-14.407,-4.088c-74.722,-21.226 -202.441,-21.226 -277.163,0c-4.917,1.4 -9.719,2.744 -14.293,4.088Zm0,80.703l0,348.965l305.862,224.747l0,-573.712c-9.09,-2.688 -16.122,-10.137 -18.009,-19.434l-119.372,0l0,373.327l-31.101,0l0,-373.327l-119.372,0c-1.887,9.297 -8.919,16.801 -18.009,19.434Zm106.966,6.833l0,347.229l-54.198,0l0,-30.411l23.154,0l0,-316.819l31.044,0Zm91.93,0l0,347.229l54.198,0l0,-30.411l-23.154,0l0,-316.819l-31.044,0Z" style="fill:#cb972a;"/></g></g></g></svg>